<?xml version="1.0" encoding="UTF-8" standalone="no"?>
<!DOCTYPE svg PUBLIC "-//W3C//DTD SVG 1.1//EN" "http://www.w3.org/Graphics/SVG/1.1/DTD/svg11.dtd">
<svg width="100%" height="100%" viewBox="0 0 409 53" version="1.1" xmlns="http://www.w3.org/2000/svg" xmlns:xlink="http://www.w3.org/1999/xlink" xml:space="preserve" xmlns:serif="http://www.serif.com/" style="fill-rule:evenodd;clip-rule:evenodd;stroke-linecap:round;stroke-miterlimit:1.5;">
    <g transform="matrix(1,0,0,1,-57.8241,-239.094)">
        <g transform="matrix(1,0,0,1,11.0845,20.3944)">
            <g transform="matrix(48,0,0,48,119.954,261.986)">
                <path d="M0.736,-0.7L0.736,0L0.573,0L0.264,-0.373L0.264,0L0.07,0L0.07,-0.7L0.233,-0.7L0.542,-0.327L0.542,-0.7L0.736,-0.7Z" style="fill:white;fill-rule:nonzero;"/>
            </g>
            <g transform="matrix(48,0,0,48,158.642,261.986)">
                <path d="M0.539,-0.136L0.243,-0.136L0.188,0L-0.014,0L0.295,-0.7L0.49,-0.7L0.8,0L0.594,0L0.539,-0.136ZM0.481,-0.282L0.391,-0.506L0.301,-0.282L0.481,-0.282Z" style="fill:white;fill-rule:nonzero;"/>
            </g>
            <g transform="matrix(48,0,0,48,196.37,261.986)">
                <path d="M0.608,-0.365C0.648,-0.351 0.679,-0.329 0.702,-0.3C0.725,-0.27 0.736,-0.234 0.736,-0.192C0.736,-0.131 0.711,-0.083 0.662,-0.05C0.613,-0.017 0.541,0 0.448,0L0.07,0L0.07,-0.7L0.428,-0.7C0.517,-0.7 0.585,-0.684 0.632,-0.651C0.679,-0.618 0.702,-0.573 0.702,-0.517C0.702,-0.484 0.694,-0.454 0.678,-0.428C0.661,-0.401 0.638,-0.38 0.608,-0.365ZM0.266,-0.557L0.266,-0.422L0.402,-0.422C0.469,-0.422 0.502,-0.445 0.502,-0.49C0.502,-0.535 0.469,-0.557 0.402,-0.557L0.266,-0.557ZM0.432,-0.143C0.501,-0.143 0.536,-0.167 0.536,-0.214C0.536,-0.261 0.501,-0.285 0.432,-0.285L0.266,-0.285L0.266,-0.143L0.432,-0.143Z" style="fill:white;fill-rule:nonzero;"/>
            </g>
            <g transform="matrix(48,0,0,48,233.282,261.986)">
                <path d="M0.07,-0.7L0.268,-0.7L0.268,-0.157L0.602,-0.157L0.602,0L0.07,0L0.07,-0.7Z" style="fill:white;fill-rule:nonzero;"/>
            </g>
            <g transform="matrix(48,0,0,48,262.946,261.986)">
                <path d="M0.539,-0.136L0.243,-0.136L0.188,0L-0.014,0L0.295,-0.7L0.49,-0.7L0.8,0L0.594,0L0.539,-0.136ZM0.481,-0.282L0.391,-0.506L0.301,-0.282L0.481,-0.282Z" style="fill:white;fill-rule:nonzero;"/>
            </g>
            <g transform="matrix(48,0,0,48,314.642,261.986)">
                <path d="M0.736,-0.7L0.736,0L0.538,0L0.538,-0.273L0.268,-0.273L0.268,0L0.07,0L0.07,-0.7L0.268,-0.7L0.268,-0.437L0.538,-0.437L0.538,-0.7L0.736,-0.7Z" style="fill:white;fill-rule:nonzero;"/>
            </g>
            <g transform="matrix(48,0,0,48,353.33,261.986)">
                <path d="M0.423,0.014C0.349,0.014 0.283,-0.002 0.224,-0.033C0.165,-0.064 0.118,-0.108 0.085,-0.163C0.051,-0.218 0.034,-0.281 0.034,-0.35C0.034,-0.419 0.051,-0.482 0.085,-0.537C0.118,-0.592 0.165,-0.636 0.224,-0.667C0.283,-0.698 0.349,-0.714 0.423,-0.714C0.497,-0.714 0.564,-0.698 0.623,-0.667C0.682,-0.636 0.728,-0.592 0.762,-0.537C0.795,-0.482 0.812,-0.419 0.812,-0.35C0.812,-0.281 0.795,-0.218 0.762,-0.163C0.728,-0.108 0.682,-0.064 0.623,-0.033C0.564,-0.002 0.497,0.014 0.423,0.014ZM0.423,-0.15C0.458,-0.15 0.49,-0.158 0.519,-0.175C0.548,-0.192 0.57,-0.215 0.587,-0.246C0.604,-0.276 0.612,-0.311 0.612,-0.35C0.612,-0.389 0.604,-0.424 0.587,-0.455C0.57,-0.485 0.548,-0.508 0.519,-0.525C0.49,-0.542 0.458,-0.55 0.423,-0.55C0.388,-0.55 0.356,-0.542 0.327,-0.525C0.298,-0.508 0.276,-0.485 0.259,-0.455C0.242,-0.424 0.234,-0.389 0.234,-0.35C0.234,-0.311 0.242,-0.276 0.259,-0.246C0.276,-0.215 0.298,-0.192 0.327,-0.175C0.356,-0.158 0.388,-0.15 0.423,-0.15Z" style="fill:white;fill-rule:nonzero;"/>
            </g>
            <g transform="matrix(48,0,0,48,393.938,261.986)">
                <path d="M0.316,0.014C0.259,0.014 0.204,0.007 0.151,-0.007C0.098,-0.021 0.054,-0.04 0.021,-0.063L0.086,-0.209C0.117,-0.188 0.154,-0.172 0.195,-0.159C0.236,-0.146 0.277,-0.14 0.317,-0.14C0.393,-0.14 0.431,-0.159 0.431,-0.197C0.431,-0.217 0.42,-0.232 0.399,-0.242C0.377,-0.251 0.342,-0.261 0.294,-0.272C0.241,-0.283 0.197,-0.296 0.162,-0.309C0.127,-0.322 0.096,-0.342 0.071,-0.371C0.046,-0.4 0.033,-0.438 0.033,-0.487C0.033,-0.53 0.045,-0.568 0.068,-0.603C0.091,-0.637 0.126,-0.664 0.173,-0.684C0.219,-0.704 0.276,-0.714 0.343,-0.714C0.389,-0.714 0.434,-0.709 0.479,-0.699C0.524,-0.688 0.563,-0.673 0.597,-0.653L0.536,-0.506C0.469,-0.542 0.405,-0.56 0.342,-0.56C0.303,-0.56 0.274,-0.554 0.256,-0.543C0.238,-0.531 0.229,-0.516 0.229,-0.497C0.229,-0.478 0.24,-0.464 0.261,-0.455C0.282,-0.446 0.317,-0.436 0.364,-0.426C0.417,-0.415 0.462,-0.403 0.497,-0.39C0.532,-0.377 0.562,-0.356 0.588,-0.328C0.613,-0.299 0.626,-0.261 0.626,-0.212C0.626,-0.17 0.614,-0.132 0.591,-0.098C0.568,-0.064 0.533,-0.037 0.486,-0.017C0.439,0.004 0.383,0.014 0.316,0.014Z" style="fill:white;fill-rule:nonzero;"/>
            </g>
            <g transform="matrix(48,0,0,48,424.514,261.986)">
                <path d="M0.219,-0.543L0.004,-0.543L0.004,-0.7L0.631,-0.7L0.631,-0.543L0.417,-0.543L0.417,0L0.219,0L0.219,-0.543Z" style="fill:white;fill-rule:nonzero;"/>
            </g>
        </g>
        <g transform="matrix(-0.641325,0.000265425,-0.000327431,-0.791143,132.198,485.576)">
            <path d="M68.113,256L101.761,300.169L34.465,300.169L68.113,256Z" style="fill:rgb(36,1,21);fill-opacity:0;stroke:white;stroke-width:13.89px;"/>
        </g>
    </g>
</svg>
